<?xml version="1.0" encoding="utf-8"?>
<!-- Generator: Adobe Illustrator 26.1.0, SVG Export Plug-In . SVG Version: 6.00 Build 0)  -->
<svg version="1.1" id="Layer_1" xmlns="http://www.w3.org/2000/svg" xmlns:xlink="http://www.w3.org/1999/xlink" x="0px" y="0px"
	 viewBox="0 0 155 48.786" enable-background="new 0 0 155 48.786" xml:space="preserve">
<g>
	<polygon fill="#E21936" points="86.886,35.879 86.829,38.691 84.752,36.979 82.204,37.846 83.145,35.195 81.628,32.919 
		84.286,32.993 85.896,30.718 86.598,33.416 89.109,34.286 	"/>
	<path fill="#E21936" d="M19.694,13.313L19.694,13.313c-0.008,0.512-0.203,1.407,0.148,3.049c0,0,1.07,7.913,9.126,8.069
		c2.318-0.159,3.296-0.6,4.488-1.184c4.476-2.19,5.221-7.098,5.221-7.098h-4.211c-2.436,5.498-7.169,3.653-7.169,3.653l2.662-12.51
		c5.116,0.14,5.307,4.959,5.307,4.959h4.281c0,0,0.301-5.063-4.634-8.067c-1.011-0.615-2.677-1.048-4.309-1.086
		C30.604,3.099,21.491,2.528,19.694,13.313"/>
	<polygon fill="#E21936" points="56.157,4.457 55.322,8.355 48.153,8.355 47.318,12.252 54.504,12.252 53.687,16.15 46.5,16.15 
		45.682,20.048 52.869,20.048 52.034,23.928 37.557,23.928 41.68,4.457 	"/>
	<polygon fill="#E21936" points="0,23.962 10.613,23.962 8.282,11.538 	"/>
	<polygon fill="#E21936" points="16.251,-0.433 10.057,8.858 12.841,23.962 20.758,23.962 	"/>
	<path fill="#231F20" d="M6.491,37.453h3.125c0.939,0,1.645-0.246,2.119-0.741c0.474-0.494,0.711-1.184,0.711-2.068
		c0-0.885-0.24-1.578-0.717-2.082c-0.48-0.503-1.183-0.755-2.113-0.755H6.491V37.453z M9.165,41.254H6.491v7.25H1.549V28.006h8.067
		c2.431,0,4.332,0.539,5.702,1.617c1.37,1.079,2.056,2.602,2.056,4.571c0,1.425-0.289,2.606-0.866,3.544
		c-0.578,0.937-1.481,1.697-2.71,2.278l4.28,8.276v0.211h-5.293L9.165,41.254z"/>
	<polygon fill="#231F20" points="36.53,39.804 28.759,39.804 28.759,44.703 37.938,44.703 37.938,48.504 23.817,48.504 
		23.817,28.006 37.965,28.006 37.965,31.821 28.759,31.821 28.759,36.143 36.53,36.143 	"/>
	<polygon fill="#231F20" points="59.739,40.86 62.09,28.006 66.989,28.006 62.639,48.504 57.514,48.504 54.769,36.819 52.08,48.504 
		46.969,48.504 42.606,28.006 47.519,28.006 49.87,40.86 52.686,28.006 56.88,28.006 	"/>
	<path fill="#231F20" d="M76.035,40.86h4.407l-2.211-7.109L76.035,40.86z M81.624,44.675h-6.772l-1.183,3.829h-5.279l7.517-20.498
		h4.647l7.573,20.498H82.82L81.624,44.675z"/>
	<path fill="#231F20" d="M98.469,37.453h3.125c0.939,0,1.645-0.246,2.119-0.741c0.474-0.494,0.711-1.184,0.711-2.068
		c0-0.885-0.24-1.578-0.717-2.082c-0.48-0.503-1.183-0.755-2.113-0.755h-3.125V37.453z M101.144,41.254h-2.674v7.25h-4.942V28.006
		h8.067c2.431,0,4.332,0.539,5.702,1.617c1.37,1.079,2.056,2.602,2.056,4.571c0,1.425-0.289,2.606-0.866,3.544
		c-0.578,0.937-1.481,1.697-2.71,2.278l4.279,8.276v0.211h-5.293L101.144,41.254z"/>
	<path fill="#231F20" d="M120.291,31.821v12.882h1.717c1.417,0,2.506-0.505,3.266-1.513c0.761-1.01,1.14-2.508,1.14-4.499v-0.886
		c0-1.981-0.379-3.472-1.14-4.477c-0.76-1.004-1.868-1.507-3.322-1.507H120.291z M115.349,48.504V28.006h6.602
		c1.811,0,3.44,0.411,4.885,1.232c1.445,0.822,2.574,1.98,3.386,3.478c0.811,1.496,1.222,3.174,1.232,5.032v0.943
		c0,1.878-0.396,3.56-1.19,5.047c-0.793,1.488-1.91,2.652-3.351,3.491c-1.44,0.841-3.048,1.265-4.821,1.274H115.349z"/>
	<path fill="#231F20" d="M146.678,43.056c0-0.723-0.256-1.286-0.767-1.689c-0.512-0.404-1.411-0.822-2.697-1.253
		c-1.286-0.432-2.336-0.849-3.153-1.253c-2.656-1.304-3.984-3.098-3.984-5.378c0-1.135,0.331-2.137,0.993-3.006
		c0.661-0.868,1.598-1.544,2.808-2.027c1.211-0.483,2.572-0.725,4.083-0.725c1.473,0,2.795,0.263,3.963,0.788
		c1.169,0.525,2.077,1.274,2.724,2.245c0.648,0.972,0.972,2.081,0.972,3.33h-4.927c0-0.835-0.256-1.483-0.768-1.943
		c-0.511-0.46-1.203-0.689-2.076-0.689c-0.882,0-1.579,0.194-2.091,0.584c-0.511,0.389-0.767,0.884-0.767,1.485
		c0,0.525,0.282,1.002,0.845,1.429c0.563,0.427,1.553,0.868,2.97,1.323c1.417,0.455,2.581,0.946,3.491,1.471
		c2.215,1.277,3.322,3.036,3.322,5.279c0,1.793-0.676,3.201-2.027,4.224c-1.351,1.024-3.205,1.535-5.56,1.535
		c-1.662,0-3.166-0.298-4.512-0.894c-1.347-0.597-2.361-1.413-3.041-2.45c-0.681-1.037-1.021-2.231-1.021-3.583h4.955
		c0,1.098,0.284,1.908,0.852,2.429c0.567,0.521,1.489,0.781,2.766,0.781c0.816,0,1.461-0.176,1.936-0.528
		C146.441,44.189,146.678,43.695,146.678,43.056"/>
	<polygon fill="#E21936" points="86.243,25.359 84.789,29.193 88.529,28.009 91.502,30.569 91.674,26.472 94.965,24.22 
		91.331,22.873 90.392,18.92 87.974,22.184 84.103,21.994 	"/>
	<polygon fill="#E21936" points="82.257,25.544 82.222,27.281 80.938,26.223 79.364,26.759 79.945,25.121 79.008,23.714 
		80.65,23.76 81.645,22.354 82.079,24.021 83.631,24.559 	"/>
	<path fill="#231F20" d="M151.477,29.057c0-0.241,0.056-0.464,0.167-0.67c0.111-0.206,0.266-0.368,0.463-0.487
		c0.197-0.119,0.41-0.178,0.639-0.178c0.229,0,0.441,0.059,0.638,0.178c0.197,0.119,0.35,0.281,0.462,0.487
		c0.111,0.206,0.167,0.429,0.167,0.67c0,0.241-0.056,0.464-0.167,0.67c-0.111,0.206-0.265,0.369-0.46,0.489
		c-0.195,0.12-0.409,0.18-0.64,0.18c-0.23,0-0.443-0.06-0.639-0.179c-0.196-0.119-0.35-0.282-0.462-0.488
		C151.533,29.523,151.477,29.299,151.477,29.057z M153.794,29.056c0-0.198-0.045-0.381-0.134-0.551
		c-0.089-0.17-0.216-0.305-0.379-0.407c-0.163-0.102-0.342-0.153-0.536-0.153c-0.189,0-0.365,0.049-0.528,0.146
		s-0.29,0.232-0.383,0.404c-0.093,0.171-0.139,0.358-0.139,0.561c0,0.202,0.046,0.389,0.138,0.561
		c0.092,0.171,0.22,0.307,0.382,0.406c0.163,0.099,0.339,0.149,0.53,0.149c0.191,0,0.368-0.051,0.532-0.152
		c0.164-0.101,0.291-0.237,0.381-0.409C153.749,29.44,153.794,29.255,153.794,29.056z M152.488,29.193v0.602h-0.27v-1.519h0.502
		c0.182,0,0.325,0.04,0.427,0.121c0.102,0.08,0.154,0.195,0.154,0.344c0,0.139-0.071,0.247-0.214,0.322
		c0.077,0.035,0.132,0.085,0.163,0.151c0.031,0.066,0.046,0.148,0.046,0.245s0.002,0.166,0.006,0.206
		c0.004,0.04,0.012,0.074,0.024,0.102v0.029h-0.277c-0.015-0.04-0.023-0.156-0.023-0.347c0-0.09-0.02-0.156-0.059-0.196
		c-0.039-0.04-0.105-0.06-0.197-0.06H152.488z M152.488,28.953h0.256c0.082,0,0.151-0.018,0.206-0.055
		c0.055-0.037,0.083-0.088,0.083-0.152c0-0.083-0.021-0.143-0.063-0.178c-0.042-0.035-0.119-0.053-0.23-0.054h-0.252V28.953z"/>
</g>
</svg>
