<?xml version="1.0" encoding="utf-8"?>
<!-- Generator: Adobe Illustrator 25.4.1, SVG Export Plug-In . SVG Version: 6.00 Build 0)  -->
<svg version="1.1" id="Layer_1" xmlns="http://www.w3.org/2000/svg" xmlns:xlink="http://www.w3.org/1999/xlink" x="0px" y="0px"
	 viewBox="0 0 134.94 92.37" style="enable-background:new 0 0 134.94 92.37;" xml:space="preserve">
<style type="text/css">
	.st0{fill:#D41F2C;}
	.st1{fill:#E05551;}
</style>
<rect x="-0.89" y="0.26" class="st0" width="135.54" height="92.76"/>
<path class="st1" d="M119.46,35.6h-40.5l0.37-0.41l31.24-34.93L119.46,35.6z M80.05,35.11h38.77l-8.52-33.83L80.05,35.11z"/>
<path class="st1" d="M132.77,35.6H92.26l31.61-35.34L132.77,35.6z M93.36,35.11h38.78l-8.52-33.83L93.36,35.11z"/>
<path class="st1" d="M122.47,47.01h-40.5l0.37-0.41l31.24-34.93L122.47,47.01z M83.06,46.52h38.77l-8.52-33.83L83.06,46.52z"/>
<path class="st1" d="M80.39,35.6h-40.5l0.37-0.41L71.49,0.26L80.39,35.6z M40.98,35.11h38.77L71.24,1.28L40.98,35.11z"/>
<path class="st1" d="M93.69,35.6H53.19L84.8,0.26L93.69,35.6z M54.29,35.11h38.78L84.54,1.28L54.29,35.11z"/>
<path class="st1" d="M83.4,47.01h-40.5l0.37-0.41L74.5,11.68L83.4,47.01z M43.99,46.52h38.77l-8.52-33.83L43.99,46.52z"/>
<path class="st1" d="M40.61,35.6H0.11L31.71,0.26L40.61,35.6z M1.21,35.11h38.77L31.46,1.28L1.21,35.11z"/>
<path class="st1" d="M53.92,35.6H13.41l0.37-0.41L45.02,0.26L53.92,35.6z M14.51,35.11h38.78L44.77,1.28L14.51,35.11z"/>
<path class="st1" d="M43.62,47.01H3.11l31.61-35.34L43.62,47.01z M4.21,46.52h38.77l-8.52-33.83L4.21,46.52z"/>
<path class="st1" d="M119.46,81.6h-40.5l0.37-0.41l31.24-34.93L119.46,81.6z M80.05,81.11h38.77l-8.52-33.83L80.05,81.11z"/>
<path class="st1" d="M132.77,81.6H92.26l31.61-35.34L132.77,81.6z M93.36,81.11h38.78l-8.52-33.83L93.36,81.11z"/>
<path class="st1" d="M122.47,93.02h-40.5l0.37-0.41l31.24-34.93L122.47,93.02z M83.06,92.52h38.77l-8.52-33.83L83.06,92.52z"/>
<path class="st1" d="M80.39,81.6h-40.5l0.37-0.41l31.24-34.93L80.39,81.6z M40.98,81.11h38.77l-8.52-33.83L40.98,81.11z"/>
<path class="st1" d="M93.69,81.6H53.19L84.8,46.26L93.69,81.6z M54.29,81.11h38.78l-8.52-33.83L54.29,81.11z"/>
<path class="st1" d="M83.4,93.02h-40.5l0.37-0.41L74.5,57.68L83.4,93.02z M43.99,92.52h38.77L74.25,58.7L43.99,92.52z"/>
<path class="st1" d="M40.61,81.6H0.11l31.61-35.34L40.61,81.6z M1.21,81.11h38.77l-8.52-33.83L1.21,81.11z"/>
<path class="st1" d="M53.92,81.6H13.41l0.37-0.41l31.24-34.93L53.92,81.6z M14.51,81.11h38.78l-8.52-33.83L14.51,81.11z"/>
<path class="st1" d="M43.62,93.02H3.11l31.61-35.34L43.62,93.02z M4.21,92.52h38.77L34.47,58.7L4.21,92.52z"/>
</svg>
