<?xml version="1.0" encoding="utf-8"?>
<!-- Generator: Adobe Illustrator 26.3.1, SVG Export Plug-In . SVG Version: 6.00 Build 0)  -->
<svg version="1.1" id="Layer_1" xmlns="http://www.w3.org/2000/svg" xmlns:xlink="http://www.w3.org/1999/xlink" x="0px" y="0px"
	 viewBox="0 0 59.154 59.154" enable-background="new 0 0 59.154 59.154" xml:space="preserve">
<g id="Group_19980" transform="translate(-424 -516)">
	<path id="Path_8618" fill="#D40029" d="M424,516h43.649c9.751,0,15.505,7.833,15.505,16.873v42.281L424,516z"/>
	<path id="Subtraction_16" fill="#FFFFFF" d="M466.206,548.577c-0.093,0.001-0.184-0.031-0.256-0.089l-9.608-8.079
		c-0.103-0.077-0.136-0.217-0.078-0.332c0.067-0.121,0.196-0.193,0.334-0.187h3.826V525.3c0.019-0.181,0.179-0.314,0.361-0.3h10.842
		c0.182-0.015,0.343,0.118,0.362,0.3v14.586h3.826c0.138-0.006,0.268,0.067,0.334,0.188c0.058,0.115,0.025,0.255-0.078,0.332
		l-9.608,8.079C466.391,548.545,466.3,548.577,466.206,548.577z M462.036,535.204l-0.017,0.035c-0.078,0.889,0.288,1.76,0.979,2.325
		c0.745,0.553,1.637,0.874,2.563,0.924v1.374h1.319v-1.38c0.871-0.038,1.711-0.338,2.409-0.861c0.585-0.469,0.916-1.186,0.892-1.936
		c0.035-0.75-0.296-1.469-0.887-1.932c-0.83-0.578-1.749-1.017-2.72-1.3c-0.491-0.133-0.951-0.359-1.356-0.666
		c-0.246-0.226-0.381-0.548-0.369-0.882c-0.015-0.341,0.113-0.674,0.353-0.917c0.296-0.251,0.679-0.375,1.066-0.345
		c0.413-0.018,0.813,0.145,1.095,0.447c0.29,0.357,0.435,0.81,0.406,1.269h2.355l0.025-0.035c0.042-0.811-0.253-1.603-0.817-2.187
		c-0.624-0.59-1.43-0.95-2.285-1.021V526.6h-1.319v1.5c-0.872,0.04-1.71,0.348-2.4,0.883c-0.578,0.468-0.907,1.177-0.892,1.921
		c-0.037,0.757,0.294,1.485,0.888,1.956c0.83,0.575,1.753,1.001,2.729,1.259c0.481,0.13,0.931,0.356,1.323,0.663
		c0.256,0.236,0.397,0.572,0.386,0.92c0.014,0.349-0.134,0.684-0.4,0.91c-0.334,0.245-0.744,0.365-1.157,0.338
		c-0.464,0.018-0.921-0.123-1.294-0.4c-0.372-0.341-0.562-0.837-0.514-1.339L462.036,535.204z"/>
</g>
</svg>
