<?xml version="1.0" encoding="utf-8"?>
<!-- Generator: Adobe Illustrator 26.1.0, SVG Export Plug-In . SVG Version: 6.00 Build 0)  -->
<svg version="1.1" id="Layer_1" xmlns="http://www.w3.org/2000/svg" xmlns:xlink="http://www.w3.org/1999/xlink" x="0px" y="0px"
	 viewBox="0 0 137.307 89.452" enable-background="new 0 0 137.307 89.452" xml:space="preserve">
<g>
	<path fill="#D40029" d="M31.816,18.135c3.21-0.088,5.923-2.402,6.516-5.558h-2.826c-1.635,3.69-4.812,2.452-4.812,2.452l1.787-8.4
		c1.892-0.036,3.471,1.438,3.563,3.329h2.873c0.094-3.297-2.503-6.047-5.8-6.141c-0.066-0.002-0.133-0.003-0.2-0.002
		c0,0-6.118-0.38-7.325,6.858c-0.077,0.683-0.044,1.375,0.1,2.047C25.692,12.72,26.41,18.03,31.816,18.135z"/>
	<polygon fill="#D40029" points="47.296,17.795 47.857,15.195 43.034,15.195 43.583,12.579 48.406,12.579 48.955,9.963 
		44.132,9.963 44.693,7.347 49.505,7.347 50.065,4.73 40.349,4.727 37.581,17.795 	"/>
	<polygon fill="#D40029" points="17.933,9.483 12.375,17.82 19.498,17.82 	"/>
	<polygon fill="#D40029" points="26.305,17.82 23.283,1.448 19.125,7.684 20.994,17.82 	"/>
	<path fill="#D40029" d="M47.797,17.143c0,0.005,0,0.01,0,0.015c0.007,0.372,0.313,0.667,0.685,0.661c0.002,0,0.003,0,0.005,0
		c0.377-0.004,0.68-0.313,0.676-0.69s-0.313-0.68-0.69-0.676C48.096,16.457,47.793,16.766,47.797,17.143z M49.057,17.157
		c-0.007,0.31-0.265,0.556-0.575,0.549c-0.008,0-0.016,0-0.024,0c-0.3-0.01-0.535-0.262-0.525-0.563c0-0.004,0-0.008,0-0.012
		c0.007-0.31,0.265-0.556,0.575-0.549C48.818,16.589,49.064,16.847,49.057,17.157z"/>
	<path fill="#D40029" d="M48.346,17.533v-0.338h0.136l0.2,0.337h0.131l-0.221-0.342c0.005,0,0.009,0,0.013,0
		c0.11-0.007,0.194-0.102,0.187-0.213c0-0.154-0.091-0.221-0.275-0.221h-0.3v0.777h0.123H48.346z M48.34,16.856h0.16
		c0.083,0,0.17,0.014,0.17,0.114c0,0.119-0.089,0.126-0.189,0.126v0.001H48.34V16.856z"/>
	<polygon fill="#D40029" points="13.26,21.123 13.804,21.123 13.804,19.094 14.727,19.094 14.727,18.694 12.336,18.694 
		12.336,19.094 13.26,19.094 	"/>
	<path fill="#D40029" d="M16.941,21.118V20.08c0-0.019-0.001-0.038-0.002-0.056c-0.031-0.394-0.376-0.687-0.77-0.656
		c-0.276-0.021-0.541,0.111-0.691,0.343h-0.007v-1.017H14.96v2.425h0.509v-0.813c-0.003-0.022-0.004-0.045-0.004-0.067
		c0-0.292,0.237-0.528,0.528-0.528c0.245,0,0.437,0.097,0.437,0.514v0.893H16.941z"/>
	<path fill="#D40029" d="M19.496,20.385v-0.1c0.001-0.048-0.002-0.096-0.009-0.144c-0.07-0.497-0.529-0.843-1.025-0.773
		c-0.858,0-1.1,0.443-1.1,0.907s0.244,0.907,1.1,0.907c0.347,0,0.938-0.098,0.988-0.518h-0.544c-0.054,0.162-0.279,0.215-0.43,0.215
		c-0.289,0-0.581-0.137-0.581-0.49l0.001-0.004H19.496z M18.429,19.672c0.278,0,0.506,0.112,0.537,0.417h-1.071
		C17.932,19.829,18.168,19.645,18.429,19.672z"/>
	<path fill="#D40029" d="M23.137,21.118V20.08c0-0.019-0.001-0.038-0.002-0.056c-0.031-0.394-0.376-0.687-0.77-0.656
		c-0.276-0.021-0.542,0.11-0.692,0.343h-0.007v-1.017h-0.51v2.425h0.509v-0.813c-0.003-0.022-0.004-0.045-0.004-0.067
		c0-0.292,0.237-0.528,0.528-0.528c0.245,0,0.437,0.097,0.437,0.514v0.893H23.137z"/>
	<path fill="#D40029" d="M25.692,20.385v-0.1c0.001-0.048-0.002-0.096-0.009-0.144c-0.07-0.497-0.529-0.843-1.025-0.773
		c-0.858,0-1.1,0.443-1.1,0.907s0.244,0.907,1.1,0.907c0.347,0,0.938-0.098,0.988-0.518h-0.544c-0.054,0.162-0.279,0.215-0.43,0.215
		c-0.289,0-0.581-0.137-0.581-0.49l0.001-0.004H25.692z M24.626,19.672c0.278,0,0.506,0.112,0.537,0.417h-1.071
		C24.129,19.829,24.365,19.645,24.626,19.672z"/>
	<rect x="26.106" y="18.694" fill="#D40029" width="0.511" height="2.425"/>
	<path fill="#D40029" d="M27.578,19.66h-0.007c0-0.078-0.007-0.155-0.014-0.232h-0.49c0.007,0.1,0.014,0.263,0.014,0.4l0.001,1.922
		h0.511v-0.876H27.6c0.167,0.206,0.424,0.318,0.688,0.3c0.501-0.006,0.902-0.417,0.896-0.917s-0.417-0.902-0.917-0.896
		C28.002,19.339,27.743,19.452,27.578,19.66z M28.763,20.324c-0.028,0.323-0.312,0.562-0.635,0.535v0.001
		c-0.009,0-0.018-0.001-0.026-0.001c-0.302-0.021-0.531-0.282-0.511-0.585c0-0.017,0.001-0.033,0.002-0.05
		c0.028-0.323,0.312-0.562,0.635-0.535C28.551,19.717,28.79,20.001,28.763,20.324z"/>
	<path fill="#D40029" d="M30.782,18.992c0.081,0,0.168,0.014,0.232,0.014V18.69c-0.121-0.013-0.296-0.02-0.437-0.02
		c-0.484,0-0.722,0.164-0.722,0.614v0.149h-0.437v0.322h0.436v1.358h0.511V19.75h0.524v-0.322h-0.524v-0.05
		C30.365,19.103,30.443,18.992,30.782,18.992z"/>
	<path fill="#D40029" d="M31.323,19.433v1.038c0,0.019,0.001,0.038,0.002,0.056c0.031,0.394,0.376,0.687,0.77,0.656
		c0.281,0.017,0.55-0.113,0.712-0.343h0.007c0,0.094,0.007,0.185,0.014,0.279h0.49c0-0.108-0.013-0.252-0.013-0.4h0.001v-1.287
		h-0.511v0.813c0.003,0.022,0.004,0.045,0.004,0.067c0,0.292-0.237,0.528-0.528,0.528c-0.245,0-0.437-0.098-0.437-0.514v-0.893
		H31.323z"/>
	<rect x="33.789" y="18.694" fill="#D40029" width="0.511" height="2.425"/>
	<path fill="#D40029" d="M36.512,21.75v-0.876h0.007c0.167,0.206,0.424,0.318,0.688,0.3c0.501-0.006,0.902-0.417,0.896-0.917
		s-0.417-0.902-0.917-0.896c-0.265-0.021-0.523,0.092-0.688,0.3h-0.007c0-0.078-0.007-0.155-0.014-0.232h-0.49
		c0.007,0.1,0.014,0.263,0.014,0.4v1.922H36.512z M36.514,20.224c0.028-0.323,0.312-0.562,0.635-0.535
		c0.323,0.028,0.562,0.312,0.535,0.635c-0.028,0.323-0.312,0.562-0.635,0.535v0.001c-0.009,0-0.019-0.001-0.028-0.001
		c-0.302-0.021-0.53-0.283-0.509-0.585C36.512,20.257,36.513,20.241,36.514,20.224z"/>
	<rect x="38.496" y="18.694" fill="#D40029" width="0.511" height="2.425"/>
	<path fill="#D40029" d="M39.381,20.668c0,0.242,0.209,0.518,0.8,0.518c0.297,0.017,0.587-0.092,0.8-0.3
		c-0.001,0.078,0.004,0.155,0.013,0.232h0.47c-0.013-0.119-0.013-0.208-0.013-0.319l-0.003,0.005v-0.707
		c0-0.591-0.491-0.725-0.964-0.725c-0.436,0-0.904,0.103-0.954,0.537h0.53c0.021-0.135,0.154-0.235,0.41-0.235
		c0.256,0,0.467,0.076,0.467,0.376H40.53C39.881,20.05,39.381,20.14,39.381,20.668z M40.944,20.349
		c-0.026,0.327-0.31,0.573-0.638,0.551c-0.292,0-0.386-0.154-0.386-0.269c0-0.201,0.214-0.282,0.6-0.282H40.944z"/>
	<path fill="#D40029" d="M42.893,19.67c0.007-0.001,0.014-0.001,0.021-0.002c0.204-0.008,0.377,0.15,0.385,0.354l0.526,0.001
		c-0.024-0.363-0.288-0.655-0.957-0.655c-0.048-0.006-0.097-0.009-0.145-0.007c-0.489,0.016-0.871,0.426-0.855,0.914
		c0,0.581,0.38,0.907,1.021,0.907c0.501,0,0.947-0.208,0.954-0.652h-0.53c-0.001,0.008-0.001,0.017-0.003,0.025
		c-0.027,0.207-0.218,0.352-0.424,0.325c-0.36,0-0.487-0.274-0.487-0.6C42.399,19.862,42.624,19.67,42.893,19.67z"/>
	<path fill="#D40029" d="M46.271,20.385v-0.1c0.001-0.048-0.002-0.096-0.009-0.144c-0.07-0.497-0.529-0.843-1.025-0.773
		c-0.858,0-1.1,0.443-1.1,0.907s0.244,0.907,1.1,0.907c0.347,0,0.938-0.098,0.988-0.518h-0.548c-0.054,0.162-0.279,0.215-0.43,0.215
		c-0.289,0-0.581-0.137-0.581-0.49l0.005-0.004H46.271z M45.2,19.672c0.278,0,0.506,0.112,0.537,0.417h-1.071
		C44.703,19.829,44.939,19.645,45.2,19.672z"/>
	<rect x="46.825" y="20.649" fill="#D40029" width="0.47" height="0.47"/>
	<rect x="86.627" y="38.023" fill="#D40029" width="31.292" height="21.408"/>
	<rect x="7.528" y="38.023" fill="#D40029" width="31.29" height="21.408"/>
	<rect x="47.077" y="38.023" fill="#D40029" width="31.29" height="21.408"/>
	<path fill="#D40029" d="M137.307,89.028l-0.003-0.115c-1.396-0.19-2.713-0.762-3.805-1.652c-0.458-0.386-0.837-0.856-1.117-1.385
		c-0.262-0.502-0.399-1.059-0.4-1.625V1.427h-1.361h-1.36V0h-0.749H55.759v22.475L31.95,29.1L8.141,22.475V0H0.205H0v84.225
		c0.003,0.607,0.167,1.2,0.461,1.73c0.642,2.021,2.51,3.495,4.743,3.497H133.37l0-0.001c-0.663-0.02-1.292-0.171-1.865-0.423h4.441
		H137.307z M75.789,8.166h42.667c0.464,0,0.84,0.22,0.84,0.492c0,0.272-0.376,0.492-0.84,0.492H75.789
		c-0.464,0-0.84-0.22-0.84-0.492C74.949,8.386,75.325,8.166,75.789,8.166z M75.789,13.409h42.667c0.464,0,0.84,0.22,0.84,0.492
		c0,0.272-0.376,0.492-0.84,0.492H75.789c-0.464,0-0.84-0.22-0.84-0.492C74.949,13.629,75.325,13.409,75.789,13.409z M75.789,18.652
		h42.667c0.464,0,0.84,0.22,0.84,0.492c0,0.272-0.376,0.492-0.84,0.492H75.789c-0.464,0-0.84-0.22-0.84-0.492
		C74.949,18.872,75.325,18.652,75.789,18.652z M69.85,15.091c-0.427-0.357-0.925-0.619-1.462-0.766
		c-0.781-0.196-1.498-0.59-2.082-1.144c-0.444-0.486-0.679-1.127-0.655-1.784c-0.026-0.663,0.204-1.31,0.642-1.808
		c0.464-0.488,1.092-0.787,1.764-0.84V7.281h1V8.76c0.689,0.068,1.322,0.41,1.757,0.948c0.45,0.632,0.67,1.399,0.625,2.173h-1.233
		c0.029-0.539-0.13-1.071-0.45-1.505c-0.293-0.369-0.745-0.576-1.216-0.558c-0.446-0.031-0.887,0.118-1.223,0.413
		c-0.296,0.307-0.45,0.724-0.427,1.15c-0.019,0.412,0.144,0.812,0.447,1.092c0.435,0.343,0.935,0.595,1.469,0.74
		c0.566,0.167,1.104,0.414,1.6,0.733c0.355,0.235,0.646,0.555,0.847,0.931c0.189,0.387,0.282,0.813,0.272,1.243
		c0.031,0.677-0.216,1.337-0.682,1.828c-0.52,0.491-1.198,0.781-1.912,0.82v1.284h-0.995v-1.284
		c-0.743-0.034-1.444-0.353-1.959-0.89c-0.497-0.586-0.751-1.34-0.709-2.107h1.243c-0.033,0.526,0.145,1.043,0.495,1.437
		c0.374,0.352,0.878,0.534,1.391,0.5c0.497,0.029,0.988-0.121,1.384-0.423c0.336-0.286,0.521-0.711,0.502-1.152
		C70.291,15.74,70.134,15.362,69.85,15.091z M45.698,37.004h34.049V60.45H45.698V37.004z M6.147,37.004h34.052V60.45H6.147V37.004z
		 M12.487,80.671c-0.52,0.491-1.198,0.781-1.912,0.82v1.284H9.58v-1.284c-0.743-0.034-1.444-0.353-1.959-0.89
		c-0.497-0.586-0.751-1.34-0.709-2.107h1.243C8.122,79.02,8.3,79.537,8.65,79.931c0.374,0.352,0.878,0.534,1.391,0.5
		c0.497,0.029,0.988-0.121,1.384-0.423c0.336-0.286,0.521-0.711,0.502-1.152c0.008-0.393-0.149-0.771-0.433-1.042
		c-0.427-0.357-0.925-0.619-1.462-0.766c-0.781-0.196-1.498-0.59-2.082-1.144c-0.444-0.486-0.679-1.127-0.655-1.784
		c-0.026-0.663,0.204-1.31,0.642-1.808c0.464-0.488,1.092-0.787,1.764-0.84v-1.468h1v1.479c0.689,0.068,1.322,0.41,1.757,0.948
		c0.45,0.632,0.67,1.399,0.625,2.173H11.85c0.029-0.539-0.13-1.071-0.45-1.505c-0.293-0.369-0.745-0.576-1.216-0.558
		c-0.446-0.031-0.887,0.118-1.223,0.413c-0.296,0.307-0.45,0.724-0.427,1.15c-0.019,0.412,0.144,0.812,0.447,1.092
		c0.435,0.343,0.935,0.595,1.469,0.74c0.566,0.167,1.104,0.414,1.6,0.733c0.355,0.235,0.646,0.555,0.847,0.931
		c0.189,0.387,0.282,0.813,0.272,1.243C13.199,79.52,12.953,80.18,12.487,80.671z M56.371,82.359H17.362
		c-0.424,0-0.768-0.22-0.768-0.492c0-0.272,0.344-0.492,0.768-0.492h39.009c0.424,0,0.768,0.22,0.768,0.492
		C57.139,82.139,56.794,82.359,56.371,82.359z M56.371,77.116H17.362c-0.424,0-0.768-0.22-0.768-0.492
		c0-0.272,0.344-0.492,0.768-0.492h39.009c0.424,0,0.768,0.22,0.768,0.492C57.139,76.896,56.794,77.116,56.371,77.116z
		 M56.371,71.873H17.362c-0.424,0-0.768-0.22-0.768-0.492c0-0.272,0.344-0.492,0.768-0.492h39.009c0.424,0,0.768,0.22,0.768,0.492
		C57.139,71.653,56.794,71.873,56.371,71.873z M74.613,80.671c-0.52,0.491-1.198,0.781-1.912,0.82v1.284h-0.995v-1.284
		c-0.743-0.034-1.444-0.353-1.959-0.89c-0.497-0.586-0.751-1.34-0.709-2.107h1.243c-0.033,0.526,0.145,1.043,0.495,1.437
		c0.374,0.352,0.878,0.534,1.391,0.5c0.497,0.029,0.988-0.121,1.384-0.423c0.336-0.286,0.521-0.711,0.502-1.152
		c0.008-0.393-0.149-0.771-0.433-1.042c-0.427-0.357-0.925-0.619-1.462-0.766c-0.781-0.196-1.498-0.59-2.082-1.144
		c-0.444-0.486-0.679-1.127-0.655-1.784c-0.026-0.663,0.204-1.31,0.642-1.808c0.464-0.488,1.092-0.787,1.764-0.84v-1.468h1v1.479
		c0.689,0.068,1.322,0.41,1.757,0.948c0.45,0.632,0.67,1.399,0.625,2.173h-1.233c0.029-0.539-0.13-1.071-0.45-1.505
		c-0.293-0.369-0.745-0.576-1.216-0.558c-0.446-0.031-0.887,0.118-1.223,0.413c-0.296,0.307-0.45,0.724-0.427,1.15
		c-0.019,0.412,0.144,0.812,0.447,1.092c0.435,0.343,0.935,0.595,1.469,0.74c0.566,0.167,1.104,0.414,1.6,0.733
		c0.355,0.235,0.646,0.555,0.847,0.931c0.189,0.387,0.282,0.813,0.272,1.243C75.325,79.52,75.079,80.18,74.613,80.671z
		 M118.497,82.359H79.488c-0.424,0-0.768-0.22-0.768-0.492c0-0.272,0.344-0.492,0.768-0.492h39.009c0.424,0,0.768,0.22,0.768,0.492
		C119.265,82.139,118.92,82.359,118.497,82.359z M118.497,77.116H79.488c-0.424,0-0.768-0.22-0.768-0.492
		c0-0.272,0.344-0.492,0.768-0.492h39.009c0.424,0,0.768,0.22,0.768,0.492C119.265,76.896,118.92,77.116,118.497,77.116z
		 M118.497,71.873H79.488c-0.424,0-0.768-0.22-0.768-0.492c0-0.272,0.344-0.492,0.768-0.492h39.009c0.424,0,0.768,0.22,0.768,0.492
		C119.265,71.653,118.92,71.873,118.497,71.873z M119.297,60.45h-34.05V37.004h34.05V60.45z M130.355,88.3
		c-0.608-0.5-1.103-1.128-1.421-1.858c0.294,0.467,0.638,0.9,1.061,1.258c0.252,0.219,0.519,0.419,0.8,0.6H130.355z M130.778,87.25
		c-0.458-0.388-0.837-0.861-1.117-1.392c-0.262-0.505-0.399-1.065-0.4-1.633V1.904h0.684v82.347
		c0.002,0.623,0.154,1.236,0.444,1.787c0.307,0.582,0.723,1.099,1.225,1.524c0.449,0.383,0.946,0.708,1.476,0.969
		C132.255,88.237,131.468,87.816,130.778,87.25z M132.138,87.261c-0.458-0.386-0.837-0.856-1.117-1.385
		c-0.262-0.502-0.399-1.059-0.4-1.625V1.904h0.685v82.347c0.002,0.623,0.154,1.236,0.444,1.787c0.307,0.582,0.723,1.099,1.225,1.524
		c0.456,0.389,0.96,0.719,1.499,0.982C133.631,88.252,132.835,87.83,132.138,87.261z"/>
</g>
</svg>
