<?xml version="1.0" encoding="utf-8"?>
<!-- Generator: Adobe Illustrator 26.3.1, SVG Export Plug-In . SVG Version: 6.00 Build 0)  -->
<svg version="1.1" id="Layer_1" xmlns="http://www.w3.org/2000/svg" xmlns:xlink="http://www.w3.org/1999/xlink" x="0px" y="0px"
	 viewBox="0 0 59.154 59.154" enable-background="new 0 0 59.154 59.154" xml:space="preserve">
<g id="Group_19170" transform="translate(-850.846 -516)">
	<g id="Group_18757" transform="translate(426.846)">
		<path id="Path_8618" fill="#5D5D5D" d="M424,516h45.613c7.478,0,13.541,6.062,13.541,13.541l0,0v45.613L424,516z"/>
	</g>
	<path id="Magifying_glass" fill="#FFFFFF" d="M889.905,522.773c-5.464-0.395-10.213,3.714-10.608,9.178s3.714,10.213,9.178,10.608
		c1.888,0.136,3.776-0.27,5.44-1.172l6.646,7.649l2.646-2.3l-6.559-7.534c3.621-4.095,3.236-10.349-0.858-13.969
		C894.154,523.786,892.085,522.921,889.905,522.773z M889.742,525.101c4.178,0.293,7.328,3.918,7.035,8.096
		c-0.293,4.178-3.918,7.328-8.096,7.035c-4.179-0.293-7.328-3.918-7.035-8.096l0,0c0.285-4.171,3.897-7.322,8.068-7.037
		C889.723,525.1,889.733,525.101,889.742,525.101z"/>
</g>
</svg>
