<?xml version="1.0" encoding="utf-8"?>
<!-- Generator: Adobe Illustrator 26.1.0, SVG Export Plug-In . SVG Version: 6.00 Build 0)  -->
<svg version="1.1" id="Layer_1" xmlns="http://www.w3.org/2000/svg" xmlns:xlink="http://www.w3.org/1999/xlink" x="0px" y="0px"
	 viewBox="0 0 101.853 91.814" enable-background="new 0 0 101.853 91.814" xml:space="preserve">
<g id="Group_18714" transform="translate(-946.863 -1060.614)">
	<path id="Union_31" fill="#D41F2C" d="M965.466,1105.339l-8.283-8.959c-0.05-0.055-0.1-0.112-0.149-0.17
		c-3.199,1.964-7.383,0.974-9.362-2.216c-1.776-3.316-0.532-7.444,2.781-9.227l6.083-3.512l6.6,11.432l-0.993,0.573l7.652,8.277
		c0.992,1.127,0.883,2.844-0.244,3.836c-0.025,0.022-0.05,0.043-0.076,0.064c-0.151,0.133-0.315,0.251-0.49,0.352
		C967.851,1106.477,966.392,1106.29,965.466,1105.339z M988.782,1087.952l-14.77-25.582c-0.323-0.56-0.131-1.276,0.428-1.599
		c0.56-0.323,1.276-0.131,1.599,0.428l4.982,8.628c1.963-0.625,4.098,0.173,5.17,1.932c0.988,1.807,0.612,4.057-0.911,5.444
		l5.531,9.58c0.323,0.56,0.131,1.276-0.428,1.599c-0.56,0.323-1.276,0.131-1.599-0.428L988.782,1087.952z M967.035,1090.11
		l-6.513-11.282l12.046-14.992l13.781,23.87L967.035,1090.11z M964.659,1092.995l-7.075-12.254c-0.323-0.56-0.131-1.275,0.428-1.598
		c0.56-0.323,1.275-0.131,1.598,0.428l7.075,12.254c0.323,0.56,0.131,1.275-0.428,1.598S964.982,1093.554,964.659,1092.995z
		 M995.54,1074.011l-7.358,0.196c-0.294,0.015-0.545-0.21-0.56-0.504c-0.001-0.013-0.001-0.026-0.001-0.039
		c0.017-0.317,0.276-0.567,0.593-0.573l7.359-0.197c0.293-0.016,0.544,0.209,0.56,0.502c0.001,0.014,0.001,0.027,0.001,0.041
		c-0.01,0.205-0.124,0.391-0.302,0.492c-0.087,0.051-0.186,0.079-0.286,0.082H995.54z M987.948,1071.375
		c-0.263,0.152-0.599,0.062-0.751-0.201s-0.062-0.599,0.201-0.751l6.532-3.771c0.263-0.152,0.599-0.062,0.751,0.201
		c0.152,0.263,0.062,0.599-0.201,0.751L987.948,1071.375z M985.253,1069.561c-0.258-0.141-0.352-0.464-0.211-0.722
		c0.007-0.012,0.014-0.024,0.021-0.035l3.849-6.274c0.165-0.271,0.51-0.37,0.793-0.227c0.258,0.141,0.353,0.465,0.211,0.724
		c-0.006,0.012-0.013,0.023-0.021,0.035l-3.849,6.274c-0.053,0.086-0.128,0.158-0.216,0.209c-0.175,0.103-0.39,0.11-0.571,0.018
		L985.253,1069.561z"/>
	<path id="Subtraction_15" fill="#D41F2C" d="M1005.721,1152.428L1005.721,1152.428l-11.291-18.834l-13.666,0.361
		c-3.199,0.025-6.294-1.135-8.69-3.255c-1.146-1.021-2.076-2.262-2.733-3.65c-0.621-1.31-0.969-2.734-1.021-4.183l-1.17-9.309
		l5.748-1.158l1.268,10.084c0,3.267,2.96,5.924,6.6,5.924l17.018-0.451l7.942,13.246l8.2-13.675l22.342-0.6
		c3.639,0,6.6-2.658,6.6-5.924l-2.126-42.266c0-3.267-2.961-5.924-6.6-5.924l-32.957,5.81l-1.217-5.428l33.635-5.929h0.539
		c3.199-0.025,6.294,1.134,8.69,3.254c1.147,1.019,2.077,2.259,2.735,3.646c0.655,1.381,1.005,2.887,1.027,4.416l2.122,42.291v0.131
		c0.001,1.58-0.35,3.141-1.027,4.569c-0.658,1.387-1.588,2.627-2.734,3.648c-2.371,2.099-5.428,3.257-8.594,3.255l-18.98,0.505
		l-11.659,19.444L1005.721,1152.428z"/>
	<g enable-background="new    ">
		<path fill="#D41F2C" d="M996.144,1100.229c-0.396,0.474-0.955,0.841-1.677,1.103c-0.723,0.261-1.523,0.392-2.402,0.392
			c-0.923,0-1.732-0.201-2.428-0.604c-0.695-0.402-1.233-0.987-1.611-1.754s-0.572-1.667-0.582-2.702v-0.726
			c0-1.064,0.18-1.986,0.538-2.765c0.359-0.779,0.876-1.375,1.553-1.787c0.676-0.413,1.469-0.619,2.377-0.619
			c1.265,0,2.253,0.302,2.966,0.904c0.713,0.604,1.135,1.481,1.267,2.633h-2.139c-0.098-0.609-0.314-1.057-0.648-1.34
			s-0.794-0.425-1.38-0.425c-0.747,0-1.316,0.281-1.707,0.843s-0.588,1.396-0.593,2.504v0.682c0,1.118,0.212,1.963,0.637,2.534
			s1.047,0.856,1.868,0.856c0.825,0,1.414-0.176,1.765-0.527v-1.838h-2v-1.619h4.197L996.144,1100.229L996.144,1100.229z"/>
		<path fill="#D41F2C" d="M1001.121,1097.673h-1.751v3.904h-2.197v-10.664h3.962c1.26,0,2.231,0.281,2.915,0.842
			c0.684,0.562,1.025,1.355,1.025,2.381c0,0.728-0.158,1.334-0.473,1.82c-0.315,0.485-0.792,0.873-1.432,1.16l2.307,4.358v0.103
			h-2.358L1001.121,1097.673z M999.37,1095.893h1.772c0.552,0,0.979-0.141,1.282-0.421c0.303-0.281,0.454-0.668,0.454-1.161
			c0-0.503-0.144-0.898-0.429-1.187c-0.286-0.288-0.724-0.433-1.314-0.433h-1.766L999.37,1095.893L999.37,1095.893z"/>
		<path fill="#D41F2C" d="M1012.017,1099.38h-3.853l-0.732,2.197h-2.337l3.97-10.664h2.036l3.992,10.664h-2.337L1012.017,1099.38z
			 M1008.757,1097.6h2.666l-1.34-3.992L1008.757,1097.6z"/>
		<path fill="#D41F2C" d="M1024.011,1101.577h-2.197l-4.277-7.017v7.017h-2.197v-10.664h2.197l4.284,7.031v-7.031h2.19V1101.577z"/>
		<path fill="#D41F2C" d="M1025.18,1101.577v-10.664h3.281c0.938,0,1.776,0.211,2.516,0.634c0.74,0.422,1.317,1.022,1.732,1.802
			c0.415,0.778,0.622,1.664,0.622,2.654v0.491c0,0.991-0.204,1.873-0.611,2.644c-0.408,0.772-0.982,1.37-1.725,1.795
			s-1.58,0.64-2.513,0.645h-3.302V1101.577z M1027.377,1092.692v7.119h1.062c0.859,0,1.517-0.28,1.971-0.842s0.686-1.364,0.695-2.41
			v-0.563c0-1.084-0.225-1.905-0.674-2.465c-0.449-0.559-1.105-0.839-1.97-0.839H1027.377z"/>
	</g>
	<g enable-background="new    ">
		<path fill="#D41F2C" d="M990.99,1111.487c0,1.05-0.186,1.97-0.557,2.761s-0.902,1.401-1.593,1.831s-1.483,0.645-2.377,0.645
			c-0.884,0-1.672-0.213-2.366-0.637c-0.693-0.426-1.23-1.032-1.611-1.82c-0.381-0.789-0.574-1.695-0.579-2.721v-0.527
			c0-1.05,0.189-1.975,0.567-2.772c0.378-0.799,0.913-1.411,1.604-1.839c0.69-0.427,1.48-0.641,2.369-0.641s1.678,0.214,2.369,0.641
			c0.691,0.428,1.226,1.04,1.604,1.839c0.378,0.798,0.567,1.72,0.567,2.765v0.475H990.99z M988.763,1111.003
			c0-1.117-0.2-1.967-0.601-2.549c-0.4-0.58-0.972-0.871-1.714-0.871c-0.737,0-1.306,0.287-1.707,0.86
			c-0.4,0.574-0.603,1.415-0.608,2.523v0.521c0,1.089,0.2,1.934,0.601,2.533c0.4,0.602,0.977,0.901,1.729,0.901
			c0.737,0,1.304-0.289,1.699-0.868c0.396-0.578,0.596-1.422,0.601-2.53L988.763,1111.003L988.763,1111.003z"/>
		<path fill="#D41F2C" d="M994.034,1112.819v3.758h-2.197v-10.664h4.16c0.801,0,1.505,0.146,2.113,0.439
			c0.607,0.293,1.075,0.709,1.402,1.249c0.327,0.539,0.491,1.153,0.491,1.842c0,1.045-0.358,1.869-1.073,2.472
			c-0.715,0.604-1.705,0.904-2.97,0.904L994.034,1112.819L994.034,1112.819z M994.034,1111.04h1.963c0.581,0,1.024-0.137,1.329-0.41
			s0.458-0.664,0.458-1.172c0-0.522-0.154-0.945-0.461-1.268s-0.732-0.487-1.274-0.498h-2.014L994.034,1111.04L994.034,1111.04z"/>
		<path fill="#D41F2C" d="M1007.178,1111.956h-4.219v2.855h4.951v1.766h-7.148v-10.664h7.134v1.779h-4.937v2.542h4.219
			L1007.178,1111.956L1007.178,1111.956z"/>
		<path fill="#D41F2C" d="M1017.121,1116.577h-2.197l-4.277-7.017v7.017h-2.197v-10.664h2.197l4.284,7.031v-7.031h2.19V1116.577z"/>
		<path fill="#D41F2C" d="M1020.626,1116.577h-2.197v-10.664h2.197V1116.577z"/>
		<path fill="#D41F2C" d="M1030.584,1116.577h-2.197l-4.277-7.017v7.017h-2.197v-10.664h2.197l4.285,7.031v-7.031h2.189V1116.577z"
			/>
		<path fill="#D41F2C" d="M1040.191,1115.229c-0.396,0.474-0.954,0.841-1.677,1.103c-0.723,0.261-1.523,0.392-2.402,0.392
			c-0.923,0-1.732-0.201-2.429-0.604c-0.695-0.402-1.232-0.987-1.611-1.754c-0.378-0.767-0.572-1.667-0.582-2.702v-0.726
			c0-1.064,0.18-1.986,0.538-2.765c0.359-0.779,0.877-1.375,1.553-1.787c0.677-0.413,1.469-0.619,2.377-0.619
			c1.265,0,2.254,0.302,2.967,0.904c0.713,0.604,1.135,1.481,1.267,2.633h-2.139c-0.098-0.609-0.313-1.057-0.648-1.34
			c-0.334-0.283-0.794-0.425-1.38-0.425c-0.747,0-1.316,0.281-1.707,0.843s-0.588,1.396-0.593,2.504v0.682
			c0,1.118,0.212,1.963,0.637,2.534s1.048,0.856,1.868,0.856c0.825,0,1.413-0.176,1.765-0.527v-1.838h-1.999v-1.619h4.196
			L1040.191,1115.229L1040.191,1115.229z"/>
	</g>
</g>
</svg>
