<?xml version="1.0" encoding="utf-8"?>
<!-- Generator: Adobe Illustrator 26.1.0, SVG Export Plug-In . SVG Version: 6.00 Build 0)  -->
<svg version="1.1" id="Group_18697" xmlns="http://www.w3.org/2000/svg" xmlns:xlink="http://www.w3.org/1999/xlink" x="0px"
	 y="0px" viewBox="0 0 131.67 76.252" enable-background="new 0 0 131.67 76.252" xml:space="preserve">
<path fill="#D40029" d="M129.038,0c-0.001,0-0.001,0-0.002,0H37.862c-1.455,0-2.634,1.179-2.634,2.634v23.098l-22.037,7.576
	c-0.534-0.137-1.082-0.206-1.633-0.207c-2.639-0.001-5.014,1.603-6,4.051C2.335,37.777,0.006,40.597,0,43.88v25.519
	c0.004,3.783,3.071,6.849,6.854,6.853h41.192c3.784-0.003,6.85-3.069,6.854-6.853v-4.826h24.769
	c-0.622,1.883-1.494,3.675-2.592,5.327c-1.107,1.609-2.936,2.57-4.889,2.568h-3.214c-2.09,0-3.784,1.694-3.784,3.784h36.518
	c0.001-2.089-1.691-3.783-3.78-3.785H94.71c-1.954,0.002-3.783-0.959-4.89-2.568c-1.098-1.652-1.97-3.443-2.592-5.326h41.808
	c1.455,0,2.634-1.179,2.634-2.634V2.634C131.671,1.18,130.493,0.001,129.038,0z M35.228,37.027h-8.057l8.057-2.769V37.027z
	 M113.42,61.024c-1.115,0-2.018-0.903-2.018-2.018c0-1.115,0.904-2.018,2.018-2.018s2.018,0.903,2.018,2.018
	C115.438,60.121,114.535,61.024,113.42,61.024z M120.52,61.024c-1.115,0-2.018-0.903-2.018-2.018c0-1.115,0.904-2.018,2.018-2.018
	s2.018,0.903,2.018,2.018C122.538,60.121,121.635,61.024,120.52,61.024z"/>
<g id="Group_18695" transform="translate(719.707 827.367)">
	<g>
		<defs>
			<rect id="SVGID_1_" x="-716.5" y="-802.507" width="48.482" height="48.184"/>
		</defs>
		<clipPath id="SVGID_00000070092622717882493350000014592189024717381796_">
			<use xlink:href="#SVGID_1_"  overflow="visible"/>
		</clipPath>
		<g id="Group_18694" clip-path="url(#SVGID_00000070092622717882493350000014592189024717381796_)">
			<path id="Path_8609" fill="#FFFFFF" d="M-671.663-787.132h-33.1v-0.538c0-0.597-0.159-1.184-0.46-1.7l28.923-9.943
				c0.797,0.546,1.886,0.343,2.433-0.454c0.547-0.797,0.343-1.886-0.454-2.433c-0.797-0.546-1.886-0.343-2.433,0.454
				c-0.192,0.279-0.298,0.608-0.306,0.947l-29.495,10.141c-1.65-0.884-3.705-0.263-4.589,1.387
				c-0.264,0.493-0.402,1.043-0.402,1.602v0.538h-1.309c-2.013,0-3.644,1.631-3.645,3.644v25.519c0,2.013,1.632,3.645,3.645,3.645
				c0,0,0,0,0,0h41.192c2.013,0,3.645-1.632,3.645-3.645l0,0v-25.519C-668.018-785.5-669.65-787.132-671.663-787.132
				L-671.663-787.132 M-706.815-760.578h-1.652v-9.483h1.652V-760.578z M-702.003-760.578h-1.652v-9.483H-702L-702.003-760.578z
				 M-697.191-760.578h-1.652v-9.483h1.653L-697.191-760.578z M-692.379-760.578h-1.652v-9.483h1.652V-760.578z M-678.773-760.578
				c-2.416,0.001-4.376-1.957-4.377-4.373s1.957-4.376,4.373-4.377c2.416-0.001,4.376,1.957,4.377,4.373c0,0.001,0,0.001,0,0.002
				c0,2.416-1.959,4.375-4.375,4.375 M-674.4-775.821h-35.72v-6.708h35.72V-775.821z"/>
			<rect id="Rectangle_5665" x="-683.426" y="-782.529" fill="#FFFFFF" width="1.652" height="6.708"/>
		</g>
	</g>
</g>
<path fill="#FFFFFF" d="M46.995,22.387c2.334,1.428,3.069,4.477,1.641,6.811c-0.902,1.475-2.508,2.372-4.236,2.369
	c-0.346,0-0.691-0.036-1.029-0.107l-1.343,0.461v5.106h6.018c3.784,0.003,6.85,3.069,6.854,6.853v10.333h69.12l-0.003-48.537H42.028
	v16.617C43.535,21.465,45.423,21.425,46.995,22.387z"/>
</svg>
